<svg width="50" height="50" viewBox="0 0 50 50" fill="none" xmlns="http://www.w3.org/2000/svg">
<g clip-path="url(#clip0_1_220)">
<path d="M37.5 42.1875V7.8125C37.5 6.08661 36.1009 4.6875 34.375 4.6875L15.625 4.6875C13.8991 4.6875 12.5 6.08661 12.5 7.8125L12.5 42.1875C12.5 43.9134 13.8991 45.3125 15.625 45.3125H34.375C36.1009 45.3125 37.5 43.9134 37.5 42.1875Z" stroke="black" stroke-width="2" stroke-linecap="round" stroke-linejoin="round"/>
<path d="M25 14.0625C26.2944 14.0625 27.3438 13.0132 27.3438 11.7188C27.3438 10.4243 26.2944 9.375 25 9.375C23.7056 9.375 22.6562 10.4243 22.6562 11.7188C22.6562 13.0132 23.7056 14.0625 25 14.0625Z" fill="black"/>
</g>
<defs>
<clipPath id="clip0_1_220">
<rect width="50" height="50" fill="white"/>
</clipPath>
</defs>
</svg>
