<svg width="27" height="28" viewBox="0 0 27 28" fill="none" xmlns="http://www.w3.org/2000/svg">
<path fill-rule="evenodd" clip-rule="evenodd" d="M13.5 4.96875C13.966 4.96875 14.3438 5.34651 14.3438 5.8125V13.4062H21.9375C22.4035 13.4062 22.7812 13.784 22.7812 14.25C22.7812 14.716 22.4035 15.0938 21.9375 15.0938H14.3438V22.6875C14.3438 23.1535 13.966 23.5313 13.5 23.5313C13.034 23.5313 12.6562 23.1535 12.6562 22.6875V15.0937H5.0625C4.59651 15.0937 4.21875 14.716 4.21875 14.25C4.21875 13.784 4.59651 13.4062 5.0625 13.4062H12.6562V5.8125C12.6562 5.34651 13.034 4.96875 13.5 4.96875Z" fill="#0F172A"/>
</svg>
