<svg width="100" height="86" viewBox="0 0 100 86" fill="none" xmlns="http://www.w3.org/2000/svg">
<path d="M24.6182 -6.5C28.8225 -6.49998 32.7453 -5.45374 36.3779 -3.36328C40.0592 -1.43379 43.0256 2.01986 45.3047 6.92871H45.3057C47.7961 11.6983 49.0176 18.4181 49.0176 27.04V32.3604C49.0175 46.0201 47.2333 56.7435 43.6279 64.4912C40.026 72.2313 34.8901 77.7385 28.21 80.9697L28.1992 80.9756V80.9746C21.5584 83.9978 13.6114 85.5 4.37402 85.5H0.5V66.2998H5.49902C11.2645 66.2998 15.7626 65.3725 19.0342 63.5625C22.2885 61.762 24.6521 58.8777 26.1162 54.8682L26.1211 54.8574C27.7773 50.6425 28.6172 45.2031 28.6172 38.5195V34.8721C27.1335 35.0232 25.613 35.0996 24.0557 35.0996C18.3245 35.0996 13.4265 33.3845 9.3916 29.9404L9.38184 29.9316L9.37305 29.9229C5.50216 26.2608 3.59277 21.17 3.59277 14.7197C3.59283 8.63944 5.40884 3.56777 9.06445 -0.456055L9.07324 -0.46582C12.933 -4.50173 18.1345 -6.5 24.6182 -6.5ZM83.1006 -6.5C87.3048 -6.5 91.2277 -5.45367 94.8604 -3.36328C98.5417 -1.43376 101.509 2.01973 103.788 6.92871L104.018 7.38184C106.353 12.1204 107.5 18.6875 107.5 27.04V32.3604C107.5 46.0201 105.717 56.7435 102.111 64.4912C98.5094 72.2316 93.3727 77.7385 86.6924 80.9697L86.6816 80.9756V80.9746C80.0408 83.9978 72.0938 85.5 62.8564 85.5H58.9824V66.2998H63.9814C69.7471 66.2998 74.2449 65.3725 77.5166 63.5625C80.771 61.762 83.1355 58.8778 84.5996 54.8682L84.6035 54.8574L84.9043 54.0527C86.3613 49.9577 87.0996 44.7855 87.0996 38.5195V34.873C85.616 35.0241 84.0952 35.0996 82.5381 35.0996C76.807 35.0995 71.9089 33.3845 67.874 29.9404L67.8643 29.9316L67.8555 29.9229C63.9846 26.2608 62.0752 21.1699 62.0752 14.7197C62.0752 8.63928 63.892 3.56782 67.5479 -0.456055L67.5566 -0.46582C71.4163 -4.50153 76.6171 -6.49996 83.1006 -6.5Z" stroke="#033D2B"/>
</svg>
