<svg width="50" height="50" viewBox="0 0 50 50" fill="none" xmlns="http://www.w3.org/2000/svg">
<path d="M44.1323 8.3335H5.86767C4.92821 8.3335 4.16663 9.09508 4.16663 10.0345V39.9658C4.16663 40.9052 4.92821 41.6668 5.86767 41.6668H44.1323C45.0717 41.6668 45.8333 40.9052 45.8333 39.9658V10.0345C45.8333 9.09508 45.0717 8.3335 44.1323 8.3335Z" stroke="black" stroke-width="2"/>
<path d="M16.6666 19.7378C14.5833 16.6669 10.9354 18.6857 11.1968 21.8419C11.4583 25.0003 15.625 25.0003 15.8843 28.1586C16.1458 31.3148 12.5 33.3336 10.4166 30.2617M27.0833 18.7503H22.9166V32.2919H27.0833M22.9166 26.0419H27.0833" stroke="black" stroke-width="2" stroke-linecap="round" stroke-linejoin="round"/>
<path d="M39.5833 21.875C39.5833 20.1491 38.1841 18.75 36.4583 18.75C34.7324 18.75 33.3333 20.1491 33.3333 21.875V29.1667C33.3333 30.8926 34.7324 32.2917 36.4583 32.2917C38.1841 32.2917 39.5833 30.8926 39.5833 29.1667V21.875Z" stroke="black" stroke-width="2" stroke-linecap="round" stroke-linejoin="round"/>
</svg>
