<svg width="32" height="32" viewBox="0 0 32 32" fill="none" xmlns="http://www.w3.org/2000/svg">
<g clip-path="url(#clip0_1_135)">
<path d="M26.2821 26.2823C28.4364 24.128 25.5792 17.7782 19.9005 12.0995C14.2218 6.42076 7.87195 3.5636 5.71772 5.71783C3.56349 7.87206 6.42064 14.2219 12.0994 19.9006C17.7781 25.5793 24.1279 28.4365 26.2821 26.2823Z" stroke="white" stroke-width="2" stroke-linecap="round" stroke-linejoin="round"/>
<path d="M19.9005 19.9005C25.5792 14.2218 28.4364 7.87197 26.2821 5.71774C24.1279 3.56351 17.7781 6.42066 12.0994 12.0994C6.42064 17.7781 3.56349 24.1279 5.71772 26.2822C7.87195 28.4364 14.2218 25.5792 19.9005 19.9005Z" stroke="white" stroke-width="2" stroke-linecap="round" stroke-linejoin="round"/>
<path d="M16 17.5C16.8284 17.5 17.5 16.8284 17.5 16C17.5 15.1716 16.8284 14.5 16 14.5C15.1716 14.5 14.5 15.1716 14.5 16C14.5 16.8284 15.1716 17.5 16 17.5Z" fill="white"/>
</g>
<defs>
<clipPath id="clip0_1_135">
<rect width="32" height="32" fill="white"/>
</clipPath>
</defs>
</svg>
