<svg width="32" height="32" viewBox="0 0 32 32" fill="none" xmlns="http://www.w3.org/2000/svg">
<g clip-path="url(#clip0_1_126)">
<path d="M24 27V5C24 3.89543 23.1046 3 22 3L10 3C8.89543 3 8 3.89543 8 5L8 27C8 28.1046 8.89543 29 10 29H22C23.1046 29 24 28.1046 24 27Z" stroke="white" stroke-width="2" stroke-linecap="round" stroke-linejoin="round"/>
<path d="M16 6.0625C16.7939 6.0625 17.4375 6.70609 17.4375 7.5C17.4375 8.29391 16.7939 8.9375 16 8.9375C15.2061 8.9375 14.5625 8.29391 14.5625 7.5C14.5625 6.70609 15.2061 6.0625 16 6.0625Z" stroke="white" stroke-width="0.125"/>
</g>
<defs>
<clipPath id="clip0_1_126">
<rect width="32" height="32" fill="white"/>
</clipPath>
</defs>
</svg>
