<svg width="50" height="50" viewBox="0 0 50 50" fill="none" xmlns="http://www.w3.org/2000/svg">
<g clip-path="url(#clip0_1_248)">
<path d="M18.75 20.3125L31.25 32.8125" stroke="black" stroke-width="2" stroke-linecap="round" stroke-linejoin="round"/>
<path d="M21.875 42.1875L42.834 21.2285C43.1243 20.9383 43.3545 20.5938 43.5116 20.2146C43.6687 19.8354 43.7495 19.429 43.7495 19.0186C43.7495 18.6081 43.6687 18.2017 43.5116 17.8225C43.3545 17.4433 43.1243 17.0988 42.834 16.8086L34.7539 8.72853C34.4637 8.43827 34.1192 8.20802 33.74 8.05093C33.3608 7.89384 32.9544 7.81299 32.544 7.81299C32.1335 7.81299 31.7271 7.89384 31.3479 8.05093C30.9687 8.20802 30.6242 8.43827 30.334 8.72853L7.16603 31.8965C6.87577 32.1867 6.64552 32.5312 6.48843 32.9104C6.33134 33.2896 6.25049 33.696 6.25049 34.1065C6.25049 34.5169 6.33134 34.9233 6.48843 35.3025C6.64552 35.6817 6.87577 36.0262 7.16603 36.3164L13.0371 42.1875H42.1875" stroke="black" stroke-width="2" stroke-linecap="round" stroke-linejoin="round"/>
</g>
<defs>
<clipPath id="clip0_1_248">
<rect width="50" height="50" fill="white"/>
</clipPath>
</defs>
</svg>
