<svg width="50" height="51" viewBox="0 0 50 51" fill="none" xmlns="http://www.w3.org/2000/svg">
<g clip-path="url(#clip0_1_171)">
<path d="M3.125 42.6875H17.9688C19.9775 42.6875 21.9411 42.0919 23.6113 40.9759C25.2814 39.8599 26.5832 38.2737 27.3519 36.4179C28.1206 34.5621 28.3217 32.52 27.9299 30.5499C27.538 28.5797 26.5707 26.7701 25.1503 25.3497C23.7299 23.9293 21.9203 22.962 19.9501 22.5702C17.98 22.1783 15.9379 22.3794 14.0821 23.1481C12.2263 23.9168 10.6401 25.2186 9.52414 26.8887C8.40815 28.5589 7.8125 30.5225 7.8125 32.5313C7.8125 39.5625 3.125 42.6875 3.125 42.6875Z" stroke="black" stroke-width="2" stroke-linecap="round" stroke-linejoin="round"/>
<path d="M21.9551 23.1875C25.7031 18.1348 35.0508 6.75 43.75 6.75C43.75 15.4492 32.3652 24.7969 27.3125 28.5449" stroke="black" stroke-width="2" stroke-linecap="round" stroke-linejoin="round"/>
<path d="M25.9766 18.2031C28.6302 19.6888 30.821 21.8796 32.3066 24.5332" stroke="black" stroke-width="2" stroke-linecap="round" stroke-linejoin="round"/>
</g>
<defs>
<clipPath id="clip0_1_171">
<rect width="50" height="50" fill="white" transform="translate(0 0.5)"/>
</clipPath>
</defs>
</svg>
