<svg width="40" height="41" viewBox="0 0 40 41" fill="none" xmlns="http://www.w3.org/2000/svg">
<g clip-path="url(#clip0_1_192)">
<path d="M15 30.5C15 31.8261 15.5268 33.0979 16.4645 34.0355C17.4021 34.9732 18.6739 35.5 20 35.5C21.3261 35.5 22.5979 34.9732 23.5355 34.0355C24.4732 33.0979 25 31.8261 25 30.5" stroke="black" stroke-width="2" stroke-linecap="round" stroke-linejoin="round"/>
<path d="M28.75 4.25C31.1638 5.79019 33.1216 7.94813 34.4203 10.5" stroke="black" stroke-width="2" stroke-linecap="round" stroke-linejoin="round"/>
<path d="M5.57971 10.5C6.87841 7.94813 8.83621 5.79019 11.25 4.25" stroke="black" stroke-width="2" stroke-linecap="round" stroke-linejoin="round"/>
<path d="M8.74999 18C8.74999 15.0163 9.93525 12.1548 12.045 10.045C14.1548 7.93526 17.0163 6.75 20 6.75C22.9837 6.75 25.8452 7.93526 27.9549 10.045C30.0647 12.1548 31.25 15.0163 31.25 18C31.25 23.5969 32.5469 26.8438 33.5781 28.625C33.6876 28.8147 33.7454 29.0299 33.7456 29.2489C33.7458 29.4679 33.6884 29.6832 33.5792 29.8731C33.47 30.063 33.3129 30.2209 33.1234 30.3309C32.934 30.4409 32.719 30.4992 32.5 30.5H7.49999C7.28121 30.4987 7.0666 30.44 6.87762 30.3297C6.68865 30.2195 6.53191 30.0616 6.42309 29.8718C6.31427 29.6819 6.25718 29.4669 6.25751 29.2481C6.25784 29.0293 6.31559 28.8145 6.42499 28.625C7.45468 26.8438 8.74999 23.5953 8.74999 18Z" stroke="black" stroke-width="2" stroke-linecap="round" stroke-linejoin="round"/>
</g>
<defs>
<clipPath id="clip0_1_192">
<rect width="40" height="40" fill="white" transform="translate(0 0.5)"/>
</clipPath>
</defs>
</svg>
