<svg width="26" height="26" viewBox="0 0 26 26" fill="none" xmlns="http://www.w3.org/2000/svg">
<path d="M19.889 10.8139C19.8889 12.5137 19.4106 14.1793 18.509 15.6203C17.6073 17.0614 16.3186 18.2198 14.7899 18.9632C13.2612 19.7067 11.5543 20.0053 9.86401 19.8249C8.17374 19.6444 6.56829 18.9923 5.23101 17.9429M1.80001 11.6319C1.63222 9.78655 2.03414 7.93416 2.95159 6.32433C3.86904 4.71449 5.25793 3.42458 6.93108 2.62843C8.60423 1.83228 10.4812 1.56816 12.3091 1.87167C14.137 2.17517 15.8279 3.03171 17.154 4.32585M17.235 17.2219L24.25 24.2509M24.25 7.32185V2.50085H19.443" stroke="white" stroke-width="2" stroke-linecap="round" stroke-linejoin="round"/>
<path d="M1.75 17.5007L10.07 9.18373C10.248 9.00695 10.4886 8.90773 10.7395 8.90773C10.9904 8.90773 11.231 9.00695 11.409 9.18373L13.855 11.6307C14.0326 11.8082 14.2734 11.908 14.5245 11.908C14.7756 11.908 15.0164 11.8082 15.194 11.6307L24.25 2.50073" stroke="white" stroke-width="2" stroke-linecap="round" stroke-linejoin="round"/>
</svg>
