<svg width="1409" height="139" viewBox="0 0 1409 139" fill="none" xmlns="http://www.w3.org/2000/svg">
<path d="M0.522342 145V2.85179H31.1057L78.2731 124.324H79.35L126.302 2.85179H155.808V145H137.071L138.363 22.8818H136.64L87.7497 145H68.3658L19.9062 22.6664H18.1832L19.4754 145H0.522342ZM172.732 146.938L169.717 128.201C171.296 128.488 172.732 128.631 174.025 128.631C175.317 128.631 176.466 128.631 177.471 128.631C185.224 128.631 191.039 127.411 194.916 124.97C198.936 122.529 201.665 118.868 203.1 113.986C204.536 108.96 205.254 102.786 205.254 95.4635V2.85179H224.853V95.6789C224.853 106.017 223.489 115.063 220.761 122.816C218.177 130.57 213.654 136.6 207.192 140.908C200.731 145.072 191.685 147.154 180.055 147.154C179.194 147.154 178.189 147.154 177.04 147.154C175.891 147.154 174.455 147.082 172.732 146.938ZM280.316 145L244.779 2.85179H266.101L294.531 127.124H296.469L325.76 2.85179H352.467L381.327 127.124H383.266L412.342 2.85179H433.018L396.619 145H368.189L339.975 20.9434H338.037L309.176 145H280.316ZM452.484 145V2.85179H472.299V145H452.484ZM462.607 145V127.985H552.203V145H462.607ZM462.607 80.3872V64.4493H542.08V80.3872H462.607ZM462.607 19.6511V2.85179H551.988V19.6511H462.607ZM572.64 145V2.85179H624.761C632.658 2.85179 639.838 3.56971 646.299 5.00555C652.904 6.44139 658.504 8.66694 663.098 11.6822C667.693 14.5539 671.211 18.3589 673.652 23.0971C676.236 27.8354 677.528 33.507 677.528 40.1119C677.528 45.568 676.452 50.3781 674.298 54.542C672.144 58.706 668.698 62.0802 663.96 64.6647C659.365 67.2492 653.263 69.2594 645.653 70.6953V73.0644C658.862 74.2131 668.411 77.8027 674.298 83.8332C680.328 89.8637 683.344 97.7608 683.344 107.525C683.344 115.565 681.405 122.386 677.528 127.985C673.795 133.441 667.98 137.677 660.083 140.692C652.329 143.564 642.279 145 629.93 145H572.64ZM591.593 128.201H631.869C642.637 128.201 650.606 126.406 655.775 122.816C661.088 119.083 663.744 113.412 663.744 105.802C663.744 97.0429 660.083 90.5099 652.76 86.2023C645.581 81.7512 634.669 79.5257 620.023 79.5257H591.593V128.201ZM591.593 64.8801H616.146C630.217 64.8801 640.699 63.0135 647.591 59.2803C654.483 55.4036 657.929 49.6602 657.929 42.0502C657.929 34.4403 654.914 28.7687 648.883 25.0355C642.996 21.3023 634.022 19.4358 621.961 19.4358H591.593V64.8801ZM759.375 147.8C749.898 147.8 741.57 146.795 734.391 144.785C727.355 142.774 721.397 139.831 716.515 135.954C711.777 131.934 708.259 127.052 705.961 121.309C703.664 115.565 702.659 108.889 702.946 101.279L720.822 97.4019C720.248 104.868 721.468 111.114 724.484 116.14C727.499 121.165 732.094 124.97 738.268 127.555C744.442 129.995 751.693 131.216 760.021 131.216C768.062 131.216 774.882 130.211 780.482 128.201C786.081 126.19 790.245 123.391 792.973 119.801C795.845 116.211 797.281 112.119 797.281 107.525C797.281 102.356 795.63 98.2634 792.327 95.2481C789.025 92.2329 784.574 89.9355 778.974 88.3561C773.518 86.6331 767.415 85.0537 760.667 83.6178C754.062 82.182 747.457 80.5308 740.852 78.6642C734.247 76.7976 728.289 74.4284 722.976 71.5568C717.807 68.5415 713.571 64.6647 710.269 59.9265C707.11 55.0446 705.531 48.8705 705.531 41.4041C705.531 32.9326 707.613 25.6099 711.777 19.4358C716.084 13.2616 722.115 8.52335 729.868 5.22092C737.622 1.77491 746.739 0.051898 757.221 0.051898C767.559 0.051898 776.748 1.70311 784.789 5.00555C792.973 8.30798 799.435 13.1898 804.173 19.6511C808.911 25.9688 811.424 33.7941 811.711 43.1271L793.189 47.65C793.189 42.481 792.255 37.9581 790.389 34.0813C788.666 30.061 786.225 26.8303 783.066 24.3894C779.907 21.8049 776.102 19.8665 771.651 18.5742C767.2 17.1384 762.318 16.4205 757.006 16.4205C750.544 16.4205 744.873 17.4256 739.991 19.4358C735.109 21.4459 731.304 24.174 728.576 27.62C725.848 31.0661 724.484 35.1582 724.484 39.8965C724.484 45.4962 726.422 49.9474 730.299 53.2498C734.319 56.4086 739.488 58.9214 745.806 60.788C752.124 62.6545 758.872 64.3776 766.051 65.957C772.225 67.2492 778.256 68.8287 784.143 70.6953C790.173 72.4183 795.63 74.7874 800.512 77.8027C805.393 80.6743 809.27 84.4793 812.142 89.2176C815.014 93.9559 816.449 99.9864 816.449 107.309C816.449 115.493 814.296 122.601 809.988 128.631C805.824 134.662 799.506 139.4 791.035 142.846C782.564 146.149 772.01 147.8 759.375 147.8ZM867.293 145V2.85179H887.108V145H867.293ZM824.003 20.0819V2.85179H930.398V20.0819H824.003ZM1006.41 147.8C998.656 147.8 991.62 146.938 985.302 145.215C978.985 143.636 973.457 141.267 968.719 138.108C963.98 134.806 959.96 130.857 956.657 126.262C953.499 121.668 951.058 116.427 949.335 110.54C947.755 104.653 946.966 98.1198 946.966 90.9406V2.85179H966.78V90.2945C966.78 98.9095 968.288 106.161 971.303 112.047C974.318 117.791 978.769 122.17 984.656 125.185C990.543 128.201 997.794 129.708 1006.41 129.708C1015.31 129.708 1022.63 128.272 1028.38 125.401C1034.26 122.386 1038.64 117.934 1041.52 112.047C1044.53 106.161 1046.04 98.9095 1046.04 90.2945V2.85179H1065.64V90.9406C1065.64 109.032 1060.61 123.032 1050.56 132.939C1040.51 142.846 1025.79 147.8 1006.41 147.8ZM1105.88 145V127.985H1147.88C1157.65 127.985 1165.69 125.76 1172 121.309C1178.32 116.714 1182.99 110.396 1186 102.356C1189.16 94.3148 1190.74 84.9819 1190.74 74.3566C1190.74 65.0237 1189.74 56.9112 1187.73 50.0192C1185.86 43.1271 1182.92 37.5273 1178.9 33.2198C1174.88 28.7687 1169.78 25.4663 1163.61 23.3125C1157.57 21.0152 1150.4 19.8665 1142.07 19.8665H1105.88V2.85179H1141.64C1157.72 2.85179 1170.86 5.65168 1181.05 11.2515C1191.25 16.8512 1198.78 24.8919 1203.67 35.3736C1208.55 45.8552 1210.99 58.347 1210.99 72.849C1210.99 82.4691 1209.91 91.156 1207.76 98.9095C1205.75 106.663 1202.8 113.412 1198.93 119.155C1195.19 124.898 1190.74 129.708 1185.57 133.585C1180.4 137.318 1174.66 140.19 1168.34 142.2C1162.03 144.067 1155.42 145 1148.53 145H1105.88ZM1095.33 145V2.85179H1115.15V145H1095.33ZM1236.31 145V2.85179H1256.34V145H1236.31ZM1345 147.8C1334.66 147.8 1325.54 146.077 1317.65 142.631C1309.89 139.185 1303.29 134.231 1297.83 127.77C1292.52 121.309 1288.5 113.627 1285.77 104.725C1283.04 95.6789 1281.68 85.5562 1281.68 74.3566C1281.68 57.9881 1284.41 44.3476 1289.86 33.4352C1295.32 22.3792 1302.86 14.0513 1312.48 8.45157C1322.1 2.85179 1333.01 0.051898 1345.21 0.051898C1354.83 0.051898 1363.52 1.70311 1371.27 5.00555C1379.03 8.30798 1385.63 13.1898 1391.09 19.6511C1396.69 26.1124 1401 34.0095 1404.01 43.3425C1407.03 52.5319 1408.54 63.0135 1408.54 74.7874C1408.54 85.8434 1407.1 95.8943 1404.23 104.94C1401.5 113.842 1397.41 121.524 1391.95 127.985C1386.64 134.303 1380.03 139.185 1372.14 142.631C1364.38 146.077 1355.34 147.8 1345 147.8ZM1345.21 130.785C1354.4 130.785 1362.16 128.631 1368.48 124.324C1374.94 119.873 1379.82 113.555 1383.12 105.371C1386.57 97.0429 1388.29 86.992 1388.29 75.2182C1388.29 63.0135 1386.57 52.6755 1383.12 44.204C1379.67 35.589 1374.72 28.9841 1368.26 24.3894C1361.8 19.7947 1353.97 17.4974 1344.78 17.4974C1336.03 17.4974 1328.42 19.7229 1321.95 24.174C1315.49 28.6251 1310.54 35.0864 1307.09 43.5579C1303.65 52.0293 1301.92 62.4392 1301.92 74.7874C1301.92 83.6896 1302.86 91.6585 1304.72 98.6941C1306.73 105.586 1309.53 111.473 1313.12 116.355C1316.86 121.093 1321.38 124.683 1326.69 127.124C1332.15 129.565 1338.32 130.785 1345.21 130.785Z" fill="url(#paint0_linear_1_346)" fill-opacity="0.24"/>
<defs>
<linearGradient id="paint0_linear_1_346" x1="-18" y1="74" x2="1422" y2="74" gradientUnits="userSpaceOnUse">
<stop offset="0.428697" stop-color="white"/>
<stop offset="0.675348" stop-color="#CACACA"/>
<stop offset="0.879552" stop-color="#999999"/>
</linearGradient>
</defs>
</svg>
